<?xml version="1.0" encoding="utf-8"?>
<!-- Generator: Adobe Illustrator 16.0.0, SVG Export Plug-In . SVG Version: 6.00 Build 0)  -->
<!DOCTYPE svg PUBLIC "-//W3C//DTD SVG 1.1//EN" "http://www.w3.org/Graphics/SVG/1.1/DTD/svg11.dtd">
<svg version="1.1" id="Слой_1" xmlns="http://www.w3.org/2000/svg" xmlns:xlink="http://www.w3.org/1999/xlink" x="0px" y="0px"
	 width="228px" height="49px" viewBox="0 0 228 49" enable-background="new 0 0 228 49" xml:space="preserve">
<path fill="#BEC1C3" d="M18.638,46.234v2.396c-0.13,0.087-0.267,0.149-0.41,0.199c-0.149,0.05-0.304,0.099-0.459,0.148
	c-0.161,0.037-0.329,0.063-0.49,0.075c-0.155,0.024-0.311,0.024-0.459,0.037c-0.379,0.012-0.757-0.063-1.111-0.211
	c-0.304-0.125-0.583-0.323-0.82-0.547c-0.217-0.248-0.391-0.521-0.503-0.819c-0.118-0.323-0.18-0.646-0.174-0.993
	c-0.006-0.348,0.056-0.684,0.187-1.006c0.112-0.286,0.279-0.559,0.49-0.795c0.23-0.236,0.503-0.41,0.801-0.534
	c0.329-0.137,0.677-0.198,1.031-0.198c0.373-0.013,0.745,0.05,1.099,0.174c0.273,0.1,0.515,0.248,0.72,0.447l-0.459,0.509
	c-0.18-0.187-0.397-0.311-0.64-0.41c-0.229-0.074-0.466-0.111-0.708-0.111c-0.509-0.013-0.994,0.198-1.335,0.583
	c-0.167,0.174-0.292,0.373-0.373,0.608c-0.087,0.236-0.13,0.497-0.13,0.758s0.05,0.521,0.149,0.77
	c0.087,0.224,0.224,0.447,0.397,0.621c0.167,0.174,0.373,0.311,0.602,0.397c0.236,0.1,0.491,0.161,0.745,0.149
	c0.211,0,0.422-0.05,0.627-0.1c0.193-0.025,0.373-0.1,0.541-0.187v-1.378h-1.062v-0.621L18.638,46.234z M21.525,44.087h1.713
	c0.267-0.013,0.528,0.024,0.776,0.124c0.174,0.074,0.329,0.186,0.459,0.322c0.112,0.137,0.199,0.298,0.242,0.472
	c0.043,0.149,0.062,0.299,0.068,0.447c0,0.311-0.118,0.621-0.323,0.845c-0.105,0.124-0.236,0.224-0.379,0.298
	c-0.155,0.074-0.323,0.124-0.503,0.149l1.378,2.223h-0.801l-1.248-2.148h-0.727v2.148h-0.646L21.525,44.087z M22.189,46.234h0.869
	c0.125,0,0.254-0.012,0.385-0.037c0.118-0.013,0.229-0.05,0.335-0.1c0.1-0.062,0.187-0.148,0.242-0.248
	c0.118-0.248,0.118-0.546,0-0.795c-0.056-0.099-0.143-0.198-0.242-0.248c-0.105-0.05-0.217-0.1-0.335-0.111
	c-0.131-0.013-0.261-0.038-0.385-0.038h-0.869V46.234z M29.664,49.091c-0.354,0-0.702-0.063-1.031-0.199
	c-0.298-0.124-0.571-0.311-0.801-0.534c-0.224-0.248-0.397-0.521-0.521-0.819c-0.249-0.646-0.249-1.378,0-2.036
	c0.124-0.285,0.298-0.546,0.521-0.782s0.497-0.41,0.801-0.534c0.658-0.272,1.391-0.272,2.055,0c0.298,0.124,0.571,0.298,0.801,0.534
	c0.224,0.236,0.404,0.509,0.521,0.819c0.255,0.658,0.255,1.379,0,2.024c-0.118,0.298-0.298,0.583-0.521,0.819
	c-0.229,0.224-0.503,0.397-0.794,0.509c-0.329,0.137-0.683,0.199-1.037,0.199H29.664z M29.664,48.457
	c0.503,0.025,0.993-0.198,1.335-0.571c0.161-0.174,0.292-0.372,0.372-0.608c0.174-0.484,0.174-1.03,0-1.515
	c-0.081-0.224-0.211-0.435-0.372-0.608c-0.689-0.745-1.851-0.782-2.589-0.1c-0.031,0.037-0.056,0.063-0.087,0.1
	c-0.162,0.174-0.286,0.385-0.367,0.608c-0.174,0.484-0.174,1.03,0,1.515c0.081,0.236,0.205,0.435,0.367,0.608
	C28.671,48.259,29.155,48.482,29.664,48.457z M34.24,44.087h0.689l1.081,3.898l0,0l1.148-3.898h0.757l1.148,3.898l0,0l1.081-3.898
	h0.689l-1.416,4.88H38.71l-1.174-3.986l0,0l-1.173,3.986h-0.721L34.24,44.087z M43.174,44.087h0.664v4.88h-0.683L43.174,44.087z
	 M46.774,44.087h0.851l2.688,4.01l0,0v-4.01h0.658v4.88h-0.838l-2.713-4.011l0,0v4.011h-0.665L46.774,44.087z M58.099,46.234v2.396
	c-0.124,0.087-0.261,0.149-0.403,0.199c-0.149,0.05-0.304,0.099-0.459,0.148c-0.162,0.037-0.329,0.063-0.497,0.075
	c-0.149,0.024-0.304,0.024-0.453,0.037c-0.385,0.012-0.758-0.063-1.111-0.211c-0.304-0.125-0.584-0.323-0.82-0.547
	c-0.223-0.248-0.391-0.521-0.509-0.819c-0.118-0.323-0.174-0.646-0.174-0.993s0.062-0.684,0.192-1.006
	c0.118-0.311,0.292-0.584,0.521-0.808c0.224-0.248,0.497-0.422,0.801-0.546c0.323-0.137,0.67-0.199,1.024-0.199
	c0.373-0.012,0.745,0.05,1.105,0.174c0.267,0.1,0.509,0.249,0.714,0.447l-0.453,0.509c-0.186-0.186-0.403-0.31-0.646-0.409
	c-0.224-0.074-0.466-0.1-0.708-0.1c-0.509-0.024-0.993,0.199-1.334,0.571c-0.167,0.174-0.292,0.385-0.373,0.608
	c-0.087,0.236-0.13,0.509-0.13,0.758c0,0.272,0.05,0.521,0.149,0.77c0.093,0.224,0.224,0.447,0.397,0.621s0.373,0.311,0.602,0.409
	c0.236,0.1,0.491,0.149,0.751,0.137c0.224,0.013,0.44-0.012,0.664-0.05c0.187-0.05,0.366-0.099,0.534-0.198v-1.366h-1.161v-0.62
	L58.099,46.234z M64.593,44.087h1.714c0.267-0.013,0.527,0.024,0.776,0.124c0.174,0.074,0.329,0.186,0.459,0.322
	c0.112,0.137,0.199,0.298,0.242,0.472c0.043,0.149,0.062,0.299,0.068,0.447c0,0.311-0.118,0.621-0.323,0.845
	c-0.105,0.124-0.236,0.224-0.378,0.298c-0.155,0.074-0.323,0.124-0.497,0.149l1.372,2.223h-0.832l-1.235-2.148H65.22v2.148h-0.658
	L64.593,44.087z M65.257,46.234h0.869c0.13,0,0.254-0.012,0.385-0.037c0.118-0.013,0.23-0.05,0.335-0.1
	c0.099-0.062,0.186-0.148,0.242-0.248c0.118-0.248,0.118-0.546,0-0.795c-0.056-0.099-0.143-0.198-0.242-0.248
	c-0.105-0.05-0.217-0.1-0.335-0.111c-0.13-0.013-0.254-0.038-0.385-0.038h-0.869V46.234z M70.485,44.087h3.154v0.633h-2.49v1.453
	h2.316v0.62h-2.316v1.564h2.57v0.621h-3.272L70.485,44.087z M76.383,44.087h0.664v4.246h2.235v0.634h-2.899V44.087z M83.169,44.087
	h0.602l2.086,4.88h-0.77l-0.49-1.205h-2.322l-0.484,1.205h-0.795L83.169,44.087z M84.354,47.179l-0.913-2.235l0,0l-0.919,2.235
	H84.354z M88.57,44.707h-1.571v-0.62h3.8v0.633h-1.564v4.259H88.57V44.707z M93.189,44.087h0.665v4.88h-0.665V44.087z
	 M99.031,49.091c-0.354,0-0.702-0.063-1.024-0.199c-0.298-0.124-0.571-0.311-0.801-0.534c-0.224-0.248-0.403-0.521-0.521-0.819
	c-0.255-0.646-0.255-1.378,0-2.036c0.118-0.298,0.298-0.571,0.521-0.807c0.229-0.236,0.503-0.41,0.801-0.534
	c0.658-0.273,1.397-0.273,2.055,0c0.298,0.124,0.571,0.298,0.801,0.534c0.224,0.235,0.404,0.509,0.521,0.807
	c0.254,0.658,0.254,1.391,0,2.036c-0.118,0.298-0.298,0.571-0.521,0.819c-0.23,0.224-0.497,0.41-0.801,0.534
	c-0.335,0.137-0.695,0.211-1.056,0.199H99.031z M99.031,48.457c0.509,0.025,0.993-0.198,1.335-0.571
	c0.167-0.174,0.292-0.372,0.373-0.608c0.174-0.484,0.174-1.03,0-1.515c-0.081-0.224-0.205-0.435-0.373-0.608
	c-0.689-0.745-1.85-0.782-2.583-0.1c-0.031,0.037-0.062,0.063-0.087,0.1c-0.161,0.174-0.292,0.385-0.372,0.608
	c-0.174,0.484-0.174,1.03,0,1.515c0.081,0.236,0.211,0.435,0.372,0.608C98.038,48.259,98.522,48.482,99.031,48.457z M104.215,44.087
	h0.869l2.688,4.01l0,0v-4.01h0.658v4.88h-0.838l-2.75-4.011l0,0v4.011h-0.658L104.215,44.087z M111.535,47.936
	c0.112,0.174,0.273,0.323,0.459,0.397c0.18,0.1,0.378,0.137,0.578,0.137c0.111,0,0.229-0.013,0.335-0.05
	c0.118-0.037,0.224-0.087,0.316-0.161c0.093-0.063,0.174-0.149,0.23-0.249c0.062-0.111,0.093-0.223,0.087-0.348
	c0.012-0.174-0.056-0.322-0.174-0.435c-0.143-0.111-0.298-0.186-0.459-0.248c-0.18-0.062-0.373-0.137-0.577-0.187
	c-0.205-0.074-0.397-0.148-0.578-0.272c-0.186-0.1-0.341-0.261-0.459-0.447c-0.13-0.224-0.192-0.497-0.174-0.758
	c0-0.335,0.137-0.67,0.379-0.906c0.149-0.148,0.323-0.273,0.515-0.348c0.242-0.087,0.497-0.137,0.757-0.124
	c0.255,0,0.516,0.024,0.764,0.1c0.255,0.099,0.478,0.248,0.64,0.472l-0.534,0.484c-0.087-0.137-0.211-0.236-0.354-0.311
	c-0.162-0.074-0.335-0.124-0.516-0.124c-0.155,0-0.311,0.024-0.459,0.074c-0.112,0.05-0.211,0.1-0.292,0.198
	c-0.068,0.05-0.124,0.149-0.155,0.236c-0.031,0.074-0.043,0.161-0.05,0.236c-0.006,0.174,0.063,0.348,0.18,0.459
	c0.137,0.124,0.292,0.211,0.459,0.273c0.186,0.074,0.379,0.137,0.577,0.187c0.199,0.049,0.397,0.124,0.578,0.223
	c0.18,0.1,0.341,0.249,0.459,0.397c0.13,0.211,0.192,0.447,0.18,0.695c0,0.224-0.043,0.435-0.136,0.634
	c-0.087,0.186-0.205,0.335-0.36,0.459c-0.155,0.124-0.335,0.236-0.534,0.298c-0.211,0.075-0.435,0.1-0.658,0.1
	c-0.304,0-0.608-0.05-0.888-0.161c-0.267-0.1-0.503-0.273-0.671-0.51L111.535,47.936z M116.912,44.087h0.664v2.011h2.526v-2.036
	h0.665v4.893h-0.665v-2.235h-2.526v2.235h-0.664V44.087z M123.697,44.087h0.658v4.88h-0.658V44.087z M127.311,44.087h1.714
	c0.261-0.013,0.521,0.024,0.77,0.124c0.174,0.074,0.323,0.186,0.447,0.322s0.198,0.298,0.248,0.472c0.1,0.299,0.1,0.621,0,0.932
	c-0.05,0.174-0.124,0.335-0.248,0.46c-0.124,0.148-0.273,0.248-0.447,0.322c-0.248,0.1-0.509,0.149-0.77,0.124h-1.067v2.161h-0.684
	L127.311,44.087z M127.957,46.234h0.881c0.125,0,0.261-0.012,0.385-0.037c0.125-0.013,0.224-0.05,0.336-0.1
	c0.1-0.062,0.186-0.148,0.235-0.248c0.124-0.248,0.124-0.546,0-0.795c-0.05-0.099-0.136-0.198-0.235-0.248
	c-0.112-0.05-0.211-0.1-0.336-0.111c-0.124-0.013-0.26-0.038-0.385-0.038h-0.881V46.234z M133.196,47.923
	c0.1,0.174,0.261,0.311,0.447,0.41c0.187,0.074,0.372,0.124,0.571,0.124c0.124,0,0.236-0.024,0.348-0.05
	c0.111-0.037,0.224-0.099,0.311-0.161s0.174-0.161,0.235-0.261c0.05-0.1,0.087-0.224,0.087-0.348
	c0.013-0.161-0.062-0.323-0.186-0.422c-0.125-0.124-0.286-0.199-0.447-0.249c-0.187-0.074-0.373-0.148-0.584-0.198
	c-0.198-0.063-0.397-0.149-0.583-0.248c-0.174-0.124-0.336-0.273-0.447-0.472c-0.137-0.224-0.198-0.484-0.174-0.745
	c0-0.348,0.137-0.671,0.372-0.919c0.149-0.149,0.323-0.261,0.521-0.336c0.236-0.087,0.497-0.136,0.745-0.136
	c0.273,0,0.521,0.037,0.771,0.111c0.248,0.087,0.472,0.236,0.646,0.459l-0.547,0.497c-0.074-0.149-0.198-0.248-0.348-0.323
	c-0.161-0.074-0.335-0.124-0.521-0.111c-0.148-0.013-0.298,0.013-0.446,0.063c-0.112,0.049-0.224,0.111-0.299,0.198
	c-0.074,0.074-0.124,0.149-0.148,0.248c-0.037,0.075-0.05,0.149-0.05,0.236c0,0.161,0.05,0.335,0.174,0.459
	c0.137,0.125,0.298,0.199,0.46,0.273c0.186,0.074,0.385,0.124,0.583,0.174s0.397,0.137,0.571,0.236
	c0.187,0.099,0.348,0.235,0.459,0.397c0.137,0.211,0.187,0.446,0.187,0.683c0,0.224-0.05,0.447-0.137,0.646
	c-0.087,0.174-0.211,0.323-0.36,0.447c-0.161,0.137-0.348,0.248-0.546,0.298c-0.198,0.074-0.422,0.111-0.646,0.111
	c-0.311,0-0.608-0.062-0.895-0.161c-0.272-0.1-0.496-0.273-0.67-0.521L133.196,47.923z M143.18,44.72h-1.564v-0.621h3.8v0.621
	h-1.564v4.259h-0.658L143.18,44.72z M147.812,44.099h0.658v1.999h2.532v-2.036h0.658v4.893h-0.658v-2.235h-2.532v2.235h-0.658
	V44.099z M154.604,44.099h1.713c0.273-0.012,0.521,0.037,0.771,0.137c0.174,0.074,0.335,0.174,0.459,0.323
	c0.112,0.124,0.199,0.272,0.249,0.446c0.037,0.149,0.062,0.299,0.062,0.473c0,0.148-0.024,0.298-0.074,0.446
	c-0.063,0.149-0.137,0.273-0.248,0.397c-0.1,0.124-0.224,0.224-0.373,0.298c-0.149,0.075-0.323,0.125-0.497,0.149l1.366,2.21h-0.819
	l-1.242-2.136h-0.744v2.136h-0.621V44.099z M155.273,46.247h0.845c0.124,0,0.248,0,0.372-0.024c0.125-0.025,0.236-0.063,0.348-0.125
	c0.1-0.049,0.174-0.124,0.236-0.223c0.111-0.273,0.111-0.56,0-0.82c-0.063-0.099-0.137-0.174-0.236-0.224
	c-0.111-0.074-0.223-0.099-0.348-0.124c-0.124-0.024-0.248-0.024-0.372-0.024h-0.869L155.273,46.247z M162.749,49.103
	c-0.36,0-0.708-0.062-1.043-0.198c-0.298-0.124-0.571-0.298-0.795-0.547c-0.224-0.223-0.397-0.496-0.521-0.807
	c-0.248-0.658-0.248-1.378,0-2.024c0.124-0.298,0.298-0.583,0.521-0.819c0.224-0.224,0.497-0.422,0.795-0.546
	c0.67-0.248,1.403-0.248,2.062,0c0.298,0.124,0.57,0.322,0.807,0.546c0.224,0.236,0.397,0.521,0.521,0.819
	c0.248,0.646,0.248,1.366,0,2.024c-0.124,0.311-0.298,0.584-0.521,0.807c-0.236,0.249-0.509,0.423-0.807,0.547
	c-0.323,0.124-0.671,0.198-1.019,0.187V49.103z M162.749,48.482c0.497,0,0.993-0.199,1.328-0.571
	c0.162-0.174,0.286-0.397,0.373-0.621c0.174-0.497,0.174-1.019,0-1.515c-0.087-0.224-0.211-0.435-0.373-0.621
	c-0.695-0.732-1.85-0.77-2.595-0.074c-0.025,0.024-0.05,0.05-0.074,0.074c-0.174,0.187-0.299,0.397-0.373,0.621
	c-0.174,0.496-0.174,1.018,0,1.515c0.074,0.224,0.199,0.447,0.373,0.621C161.756,48.283,162.228,48.482,162.749,48.482z
	 M168.473,44.087v2.979c0,0.161,0.025,0.323,0.063,0.472c0.037,0.149,0.111,0.311,0.199,0.447c0.099,0.149,0.235,0.261,0.385,0.348
	c0.359,0.174,0.794,0.174,1.154,0c0.149-0.087,0.286-0.198,0.385-0.348c0.1-0.137,0.162-0.298,0.211-0.447
	c0.038-0.148,0.05-0.311,0.063-0.472v-2.979h0.658v3.092c0,0.261-0.05,0.533-0.149,0.782c-0.099,0.223-0.224,0.422-0.397,0.596
	s-0.372,0.298-0.596,0.397c-0.484,0.174-1.018,0.174-1.49,0c-0.223-0.1-0.422-0.224-0.596-0.397s-0.311-0.373-0.397-0.596
	c-0.1-0.249-0.149-0.521-0.149-0.782v-3.092H168.473z M178.593,46.234v2.396c-0.124,0.087-0.273,0.149-0.409,0.199
	c-0.149,0.05-0.311,0.099-0.46,0.148c-0.161,0.037-0.323,0.063-0.497,0.075c-0.148,0.024-0.298,0.024-0.446,0.037
	c-0.385,0.012-0.771-0.063-1.118-0.211c-0.608-0.249-1.092-0.745-1.315-1.366c-0.124-0.323-0.187-0.646-0.174-0.993
	c-0.013-0.348,0.05-0.684,0.174-1.006c0.124-0.298,0.31-0.559,0.533-0.795s0.497-0.41,0.808-0.534
	c0.322-0.137,0.67-0.198,1.018-0.198c0.373-0.013,0.745,0.05,1.105,0.174c0.261,0.1,0.509,0.248,0.708,0.447l-0.447,0.509
	c-0.187-0.187-0.397-0.311-0.646-0.41c-0.224-0.074-0.472-0.111-0.708-0.111c-0.509-0.013-0.993,0.198-1.328,0.583
	c-0.174,0.174-0.298,0.373-0.373,0.608c-0.099,0.236-0.137,0.497-0.124,0.758c-0.013,0.261,0.037,0.521,0.137,0.77
	c0.087,0.224,0.236,0.447,0.397,0.621c0.174,0.174,0.385,0.311,0.608,0.397c0.224,0.1,0.484,0.161,0.745,0.149
	c0.224,0,0.446-0.013,0.67-0.05c0.174-0.05,0.36-0.1,0.521-0.199v-1.365h-1.067v-0.621L178.593,46.234z M181.486,44.087h0.658v2.011
	h2.533v-2.036h0.657v4.893h-0.657v-2.235h-2.533v2.235h-0.658V44.087z M191.768,44.087h1.701c0.311,0,0.62,0.024,0.919,0.124
	c0.248,0.062,0.472,0.174,0.67,0.298c0.187,0.124,0.348,0.285,0.472,0.472c0.112,0.149,0.211,0.323,0.299,0.521
	c0.074,0.174,0.124,0.348,0.148,0.521c0.025,0.174,0.05,0.335,0.05,0.497c0,0.322-0.05,0.62-0.174,0.919
	c-0.112,0.298-0.286,0.559-0.509,0.782c-0.236,0.235-0.521,0.422-0.832,0.546c-0.373,0.137-0.771,0.211-1.155,0.211h-1.539
	L191.768,44.087z M192.426,48.333h0.844c0.273,0.013,0.534-0.024,0.795-0.1c0.236-0.074,0.459-0.198,0.658-0.348
	c0.187-0.148,0.348-0.348,0.459-0.571c0.112-0.248,0.174-0.521,0.162-0.794c0-0.187-0.037-0.373-0.075-0.547
	c-0.062-0.224-0.161-0.422-0.285-0.596c-0.161-0.199-0.348-0.348-0.584-0.46c-0.298-0.136-0.633-0.211-0.956-0.198h-0.993
	L192.426,48.333z M200.224,44.087h0.596l2.086,4.88h-0.77l-0.497-1.205h-2.322l-0.484,1.205h-0.77L200.224,44.087z M201.402,47.179
	l-0.918-2.235l0,0l-0.907,2.235H201.402z M205.612,44.707h-1.564v-0.62h3.787v0.633h-1.552v4.259h-0.671V44.707z M211.125,44.087
	h0.608l2.087,4.88h-0.783l-0.484-1.205h-2.321l-0.472,1.205h-0.771L211.125,44.087z M212.317,47.179l-0.919-2.235l0,0l-0.919,2.235
	H212.317z"/>
<path fill="#194F6C" d="M55.411,6.364L78.152,29.98l-2.384,2.285L72.18,28.54l-3.551,3.439c-1.639,1.59-3.849,2.472-6.134,2.422l0,0
	c-4.756-0.087-8.537-4.011-8.45-8.767c0.043-2.284,0.987-4.457,2.632-6.034l2.377-2.297l2.31,2.396l-2.377,2.285
	c-2.111,2.012-2.179,5.364-0.162,7.474c0.975,1.006,2.316,1.59,3.725,1.614l0,0c1.403,0.025,2.763-0.496,3.769-1.49l3.551-3.427
	L55.411,11.182V6.364z M13.572,6.96v22.424h-2.186v-2.384c-0.919,1.726-2.719,2.632-5.016,2.632C2.769,29.658,0,26.728,0,22.804
	c0-3.936,2.794-6.829,6.345-6.829c2.117-0.075,4.085,1.093,5.035,2.98V6.96H13.572z M11.467,22.804c0-2.831-1.875-4.855-4.662-4.855
	c-2.794,0-4.539,2.024-4.539,4.855c0,2.818,1.775,4.917,4.539,4.917C9.561,27.721,11.467,25.66,11.467,22.804z M27.895,23.5
	c0,2.557-1.614,4.147-4.091,4.147c-2.154,0-3.235-1.267-3.235-3.551v-7.822h-2.204v8.046c0,3.365,1.999,5.364,4.917,5.364
	c2.074,0,3.75-0.757,4.631-2.508v2.21h2.223V16.273h-2.229L27.895,23.5z M42.211,15.975c-2.08,0-3.781,0.77-4.663,2.533v-2.235
	h-2.204v13.125h2.21v-7.239c0-2.595,1.651-4.147,4.097-4.147c2.186,0,3.266,1.329,3.266,3.651v7.747h2.223v-7.996
	c0.006-3.439-1.993-5.438-4.911-5.438H42.211z"/>
<path fill="#5598B4" d="M120.531,15.975c-2.502,0-4.222,0.993-5.357,2.533l1.371,1.241c0.876-1.241,2.316-1.961,3.837-1.899
	c1.938,0,3.08,0.981,3.08,3.514v0.323h-4.104c-2.75,0-4.985,1.266-4.985,3.96s2.03,3.998,4.824,3.998
	c2.03,0,3.358-0.534,4.253-1.775v1.515h2.062v-8.045C125.511,17.713,123.449,15.975,120.531,15.975z M123.449,25.039
	c0,1.713-1.714,2.831-3.744,2.831c-2.036,0-3.172-0.795-3.172-2.297c0-1.577,1.297-2.185,2.979-2.185h3.924L123.449,25.039z"/>
<path fill="#5598B4" d="M93.077,15.975c-2.446,0-4.091,0.919-5.035,2.669V6.96h-2.192v22.424h2.186v-2.384
	c0.919,1.726,2.719,2.632,5.017,2.632c3.582,0,6.37-2.905,6.37-6.854S96.666,15.975,93.077,15.975z M92.618,27.721
	c-2.794,0-4.663-2.061-4.663-4.917s1.869-4.855,4.663-4.855c2.793,0,4.538,2.024,4.538,4.855c0,2.818-1.794,4.917-4.551,4.917
	H92.618z"/>
<path fill="#5598B4" d="M71.888,10.139v3.452c0.727,0.273,1.378,0.72,1.906,1.292c2.03,2.111,1.974,5.451-0.13,7.475h-0.006
	l-0.311,0.298l2.328,2.371l0.292-0.273c3.427-3.29,3.526-8.753,0.229-12.181c-1.167-1.205-2.663-2.049-4.309-2.421V10.139z"/>
<path fill="#5598B4" d="M57.571,3.037L55.92,4.626L58.21,7.01l1.646-1.589c1.583-1.515,4.098-1.465,5.619,0.1
	c1.527,1.589,1.484,4.098-0.093,5.625l-1.639,1.577l2.285,2.384l1.633-1.564c2.955-2.757,3.123-7.363,0.378-10.319
	c-2.738-2.943-7.357-3.117-10.312-0.385c-0.063,0.075-0.131,0.137-0.199,0.199H57.571z"/>
<path fill="#5598B4" d="M106.326,18.384v-2.111h-2.223v13.125h2.223v-6.916c0-3.08,1.521-4.396,3.39-4.396
	c0.64-0.025,1.273,0.149,1.807,0.497l0.856-1.937c-0.677-0.447-1.478-0.67-2.291-0.633
	C108.586,16.012,107.158,16.497,106.326,18.384z"/>
<path fill="#5598B4" d="M167.517,27.746c-0.943,0-1.552-0.547-1.552-2.285v-7.325h3.663v-1.863h-3.663V6.96h-2.197v9.313h-2.012
	v1.863h2.012v7.301c0,3.104,1.539,4.246,3.525,4.246c1.205,0.05,2.372-0.435,3.204-1.291l-1.204-1.378
	C168.833,27.497,168.188,27.771,167.517,27.746z"/>
<path fill="#5598B4" d="M209.113,15.975c-3.725-0.025-6.754,2.955-6.792,6.68c0,0.05,0,0.124,0,0.199
	c0,3.824,2.794,6.804,7.103,6.804c2.57,0,4.309-0.906,5.525-2.285l-1.378-1.328c-1.056,1.154-2.583,1.8-4.159,1.751
	c-2.881,0-4.57-1.714-4.88-4.222h11.175C215.868,19.216,213.336,15.975,209.113,15.975z M204.569,21.885
	c0.348-2.409,2.036-4.023,4.544-4.023c2.744,0,4.186,1.763,4.371,4.023H204.569z"/>
<path fill="#5598B4" d="M191.953,15.975c-3.725-0.025-6.754,2.955-6.792,6.68c0,0.05,0,0.124,0,0.199
	c0,3.824,2.794,6.804,7.115,6.804c2.558,0,4.296-0.906,5.513-2.285l-1.365-1.328c-1.068,1.154-2.583,1.8-4.147,1.738
	c-2.894,0-4.582-1.701-4.893-4.209h11.176C198.708,19.216,196.176,15.975,191.953,15.975z M187.409,21.885
	c0.348-2.409,2.036-4.023,4.544-4.023c2.744,0,4.185,1.763,4.371,4.023H187.409z"/>
<path fill="#5598B4" d="M226.796,26.988c-0.46,0.484-1.105,0.77-1.776,0.758c-0.956,0-1.552-0.547-1.552-2.285v-7.325h3.65v-1.863
	h-3.65V6.96h-2.186v9.313h-2.036v1.863h2.036v7.301c0,3.104,1.515,4.246,3.515,4.246c1.204,0.05,2.371-0.435,3.203-1.291
	L226.796,26.988z"/>
<path fill="#5598B4" d="M177.326,18.384v-2.111h-2.223v13.125h2.223v-6.916c0-3.08,1.516-4.408,3.39-4.408
	c0.646-0.037,1.292,0.149,1.825,0.509l0.869-1.937c-0.683-0.447-1.489-0.67-2.297-0.646
	C179.586,16.012,178.158,16.497,177.326,18.384z"/>
<path fill="#5598B4" d="M153.883,21.711c-2.31-0.646-3.104-1.005-3.104-2.235c0-1.018,0.869-1.688,2.284-1.688
	c1.155-0.025,2.235,0.546,2.868,1.49l1.527-1.167c-1.018-1.403-2.657-2.21-4.383-2.124c-2.409,0-4.309,1.304-4.309,3.588
	c0,2.471,1.899,3.303,3.961,3.899c2.297,0.67,3.427,0.98,3.427,2.408c0,1.205-1.018,1.962-2.794,1.962
	c-1.589,0.05-3.066-0.819-3.812-2.21l-1.701,0.981c0.845,1.651,2.731,3.042,5.612,3.042c3.303,0,4.793-1.688,4.793-3.899
	C158.229,23.202,156.118,22.333,153.883,21.711z"/>
<path fill="#5598B4" d="M141.305,18.632c-0.956-1.738-2.545-2.657-5.028-2.657c-3.552,0-6.358,2.905-6.358,6.804
	c0,3.898,2.807,6.879,6.383,6.879c2.285,0,4.122-0.919,5.017-2.645v2.384h2.186V6.96h-2.186L141.305,18.632z M136.723,27.696
	c-2.744,0-4.532-2.062-4.532-4.917c0-2.856,1.776-4.842,4.532-4.842c2.757,0,4.669,2.036,4.669,4.842
	c0,2.831-1.862,4.941-4.656,4.941L136.723,27.696z"/>
</svg>
