<?xml version="1.0" encoding="UTF-8"?>
<svg width="248px" height="196px" viewBox="0 0 248 196" version="1.1" xmlns="http://www.w3.org/2000/svg" xmlns:xlink="http://www.w3.org/1999/xlink">
    <!-- Generator: sketchtool 53.2 (72643) - https://sketchapp.com -->
    <title>93AF7FA2-938D-4227-A04A-D36D75D6A7AF</title>
    <desc>Created with sketchtool.</desc>
    <defs>
        <polygon id="path-1" points="0.115428775 0.0244108679 209.503203 0.0244108679 209.503203 74.7105709 0.115428775 74.7105709"></polygon>
    </defs>
    <g id="Symbols" stroke="none" stroke-width="1" fill="none" fill-rule="evenodd">
        <g id="Illustrations-/-hot_air_balloon">
            <g id="Group-4" transform="translate(127.000000, 98.000000) scale(-1, 1) translate(-127.000000, -98.000000) translate(6.000000, 0.000000)">
                <path d="M87,102 C97.7067441,126.231711 127.263738,138.001712 152.328886,130.423437 C172.816823,124.228586 190.269759,107.833722 211.572047,109.660101 C230.53799,111.287914 245.52878,132.146169 241.271692,150.984934 C237.015728,169.82588 214.56998,181.960284 196.803659,175.027897" id="Stroke-1" stroke="#BF3D4B" stroke-width="2"></path>
                <path d="M210,65 C210,100.897661 179.780342,130 142.499436,130 C105.220785,130 75,100.897661 75,65 C75,29.101254 105.220785,0 142.499436,0 C179.780342,0 210,29.101254 210,65" id="Fill-5" fill="#CC4149"></path>
                <g id="Group-11" transform="translate(0.000000, 93.000000)">
                    <mask id="mask-2" fill="white">
                        <use xlink:href="#path-1"></use>
                    </mask>
                    <g id="Clip-10"></g>
                    <path d="M47.1716285,74.7116805 L207.369346,74.7116805 C212.391707,62.0080429 208.210552,49.4741718 198.369347,43.9440006 C188.527012,38.4138295 174.211813,40.57752 166.950758,48.6941336 C162.736814,32.8226311 153.737946,17.3494696 138.791842,8.00121676 C123.845739,-1.34703608 102.32941,-3.20226204 87.5302914,6.33129148 C72.7300422,15.864845 68.7388367,37.5694353 81.756046,48.9948311 C63.0776565,42.0887747 4.78683519,53.7948954 0.114976514,71.3829258 L47.1716285,74.7116805 Z" id="Fill-9" fill="#FFC8AA" mask="url(#mask-2)"></path>
                </g>
                <polygon id="Fill-110" fill="#FFA16E" points="58 94 59.2507547 104.191748 69 105.500579 59.2507547 106.807094 58 117 56.7481385 106.807094 47 105.500579 56.7481385 104.191748"></polygon>
                <path d="M231.553826,120.784696 C230.21293,131.362909 217.828291,145.87381 208.135038,155.405192 C203.409924,160.060433 191.605133,172.127278 190.36443,173 L171.006704,173 C169.7692,172.127278 157.854621,160.060433 153.244624,155.405192 C143.793329,145.87381 131.786018,131.362909 130.446187,120.784696 C126.522626,89.8422525 148.89577,61 181.004803,61 C213.103177,61 235.477387,89.8422525 231.553826,120.784696" id="Fill-305" fill="#FFA16E"></path>
                <path d="M186.088984,173 C245.905564,77.0091717 187.331001,61 187.331001,61 L173.449161,61 C173.449161,61 114.963397,77.0091717 175.316275,173 L186.088984,173 Z" id="Fill-306" fill="#E34056"></path>
                <path d="M181.859426,173 C191.062629,77.0091717 182.050987,61 182.050987,61 L179.915397,61 C179.915397,61 170.917504,77.0091717 180.202281,173 L181.859426,173 Z" id="Fill-307" fill="#E34056"></path>
                <polygon id="Fill-308" fill="#E34056" points="185.18147 196 176.806949 196 174 186 188 186"></polygon>
                <path d="M205,164 C202.461953,166.206837 200.134283,168.152964 198.196608,169.734531 C198.187996,169.741021 198.179384,169.747512 198.179384,169.747512 C196.282308,171.12354 194.668194,172.411943 193.637227,173.21138 C193.620004,173.229771 193.60278,173.249243 193.578174,173.262224 C193.435463,173.375811 193.300133,173.477499 193.182028,173.571614 C193.140198,173.602986 193.089757,173.640848 193.047928,173.67222 C192.972882,173.736045 192.896605,173.785807 192.82894,173.836651 C192.795723,173.861532 192.762506,173.881004 192.73667,173.905885 C192.720676,173.912376 192.704683,173.918866 192.696071,173.931848 C192.687459,173.938338 192.671466,173.943747 192.662854,173.949156 C192.637018,173.968628 192.612413,173.987019 192.586577,174 L170.241185,174 C170.21658,173.987019 170.182132,173.968628 170.148915,173.943747 L170.072638,173.887495 C170.023427,173.855041 169.972986,173.817179 169.913933,173.779316 C169.872104,173.742536 169.821663,173.704673 169.779834,173.67222 L169.645735,173.571614 C168.818993,172.946344 167.348821,171.762873 165.541554,170.418217 L158,164 L205,164 Z" id="Fill-309" fill="#6D232B"></path>
                <polyline id="Stroke-310" stroke="#6D232B" stroke-width="2" points="174.675522 186 171 172 181 186"></polyline>
                <polyline id="Stroke-311" stroke="#6D232B" stroke-width="2" points="187.332786 186 191 172 181 186"></polyline>
                <polygon id="Fill-312" fill="#E34056" points="187.95701 191 174.041036 191 174 187 188 187"></polygon>
            </g>
        </g>
    </g>
</svg>