<?xml version="1.0" encoding="UTF-8"?>
<svg width="24px" height="24px" viewBox="0 0 24 24" version="1.1" xmlns="http://www.w3.org/2000/svg" xmlns:xlink="http://www.w3.org/1999/xlink">
    <!-- Generator: sketchtool 53.2 (72643) - https://sketchapp.com -->
    <title>973012D6-8A5E-405B-9E66-BA82397AA3CE</title>
    <desc>Created with sketchtool.</desc>
    <g id="Symbols" stroke="none" stroke-width="1" fill="none" fill-rule="evenodd" stroke-linecap="round" stroke-linejoin="round">
        <g id="Icons-/-linkedin_fill-grey-24" fill="#565350" stroke="#565350" stroke-width="0.8">
            <path d="M6.34791304,4.17391304 C6.34791304,5.37478261 5.37486957,6.34782609 4.174,6.34782609 C2.97313043,6.34782609 2.00008696,5.37478261 2.00008696,4.17391304 C2.00008696,2.97304348 2.97313043,2 4.174,2 C5.37486957,2 6.34791304,2.97304348 6.34791304,4.17391304 Z M2,22 L2,8.95652174 L6.34782609,8.95652174 L6.34782609,22 L2,22 Z M13.3044348,9.82608696 C14.9418261,7.77478261 21.9018261,6.17913043 22.000087,13.3043478 L22.000087,15.9130435 L22.000087,22 L17.6522609,22 L17.6522609,16.0947826 L17.6522609,15.9130435 L17.6522609,14.173913 C17.6531304,11.4495652 14.954,10.8321739 13.3044348,12.4347826 L13.3044348,22 L8.9566087,22 L8.9566087,8.95652174 L13.3044348,8.95652174 L13.3044348,9.82608696 Z" id="Combined-Shape"></path>
        </g>
    </g>
</svg>