<?xml version="1.0" encoding="UTF-8"?>
<svg width="100px" height="100px" viewBox="0 0 100 100" version="1.1" xmlns="http://www.w3.org/2000/svg" xmlns:xlink="http://www.w3.org/1999/xlink">
    <!-- Generator: sketchtool 53.2 (72643) - https://sketchapp.com -->
    <title>7F0A34D8-A463-4A7A-80FC-AAE2D5B2994C</title>
    <desc>Created with sketchtool.</desc>
    <g id="Symbols" stroke="none" stroke-width="1" fill="none" fill-rule="evenodd" stroke-linecap="round" stroke-linejoin="round">
        <g id="Icons-/-transfer_money_nis_outline-coral-100" stroke="#FF776F" stroke-width="1.5">
            <path d="M15,50 C15,30.6678261 30.6678261,15 50,15 C65.5734783,15 76.3778261,25.2717391 83.3108696,39.2321739 M72.826087,39.3478261 L85,39.3478261 L85,27.3017391 M85,50 C85,69.3321739 69.3321739,85 50,85 C34.4265217,85 23.6221739,74.7282609 16.6891304,60.7678261 M27.173913,60.6521739 L15,60.6521739 L15,72.6982609 M56.4424779,54.0884956 L56.4424779,36.2477876 C56.4424779,36.1110088 56.3037168,36 56.1327434,36 L43.7433628,36 C39.4668584,36 36,38.7734867 36,42.1946903 L36,64 M45.9115044,45.9115044 L45.9115044,63.7522124 C45.9115044,63.8889912 46.0502655,64 46.2212389,64 L58.6106195,64 C62.8871239,64 66.3539823,61.2265133 66.3539823,57.8053097 L66.3539823,36" id="Combined-Shape"></path>
        </g>
    </g>
</svg>