<?xml version="1.0" encoding="UTF-8"?>
<svg width="100px" height="100px" viewBox="0 0 100 100" version="1.1" xmlns="http://www.w3.org/2000/svg" xmlns:xlink="http://www.w3.org/1999/xlink">
    <!-- Generator: sketchtool 53.2 (72643) - https://sketchapp.com -->
    <title>4588E459-A548-49C3-8C76-B05CCF6F9DB0</title>
    <desc>Created with sketchtool.</desc>
    <g id="Symbols" stroke="none" stroke-width="1" fill="none" fill-rule="evenodd">
        <g id="Icons-/-home_outline-black-100" stroke="#FF776F">
            <g id="Group-325" transform="translate(17.000000, 16.000000)" stroke-linecap="round" stroke-linejoin="round">
                <path d="M58.5260833,34 L58.5260833,32.5416667 L67.2965,32.5416667 L58.5260833,23.7916667 L58.5260833,0.458333333 L46.8331667,0.458333333 L46.8331667,12.125 L36.17275,1.48791667 C35.5135833,0.82875 34.6181667,0.458333333 33.6819167,0.458333333 L33.679,0.458333333 C32.74275,0.458333333 31.8473333,0.82875 31.1881667,1.48791667 L0.0673333333,32.5416667 L8.83483333,32.5416667 L8.83483333,67.5416667 L39.5269167,67.5416667" id="Stroke-313"></path>
                <polyline id="Stroke-315" points="32.2192083 55.875 23.4487917 55.875 23.4487917 35.4583333 43.912125 35.4583333"></polyline>
                <path d="M58.5260833,34 L58.5260833,32.5416667 L67.2965,32.5416667 L58.5260833,23.7916667 L58.5260833,0.458333333 L46.8331667,0.458333333 L46.8331667,12.125 L36.17275,1.48791667 C35.5135833,0.82875 34.6181667,0.458333333 33.6819167,0.458333333 L33.679,0.458333333 C32.74275,0.458333333 31.8473333,0.82875 31.1881667,1.48791667 L0.0673333333,32.5416667 L8.83483333,32.5416667 L8.83483333,67.5416667 L39.5269167,67.5416667" id="Stroke-317"></path>
                <path d="M38.06975,52.9583333 C38.06975,44.9054167 44.6118333,38.375 52.6851667,38.375 C60.7555833,38.375 67.3005833,44.9054167 67.3005833,52.9583333 C67.3005833,61.01125 60.7555833,67.5416667 52.6851667,67.5416667 C44.6118333,67.5416667 38.06975,61.01125 38.06975,52.9583333 L38.06975,52.9583333 Z" id="Stroke-319"></path>
                <polyline id="Stroke-312" points="32.2192083 55.875 23.4487917 55.875 23.4487917 35.4583333 43.912125 35.4583333"></polyline>
            </g>
            <path d="M79.9932048,76.5577702 C79.9977346,76.5819972 80.0000386,76.6070848 79.9999995,76.6327318 C79.9999995,76.8354984 79.8509853,76.9999235 79.6667872,76.9999235 C79.6651471,77.0000956 79.6628823,76.9999235 79.6602659,76.9999235 L60.3332123,76.9999235 C60.1490532,76.9999235 60,76.8355414 60,76.6327318 C60,74.1849452 60.866594,71.8798525 62.4399901,70.1419209 C63.2909642,69.2079554 64.329026,68.4753364 65.4429227,68.0225972 C65.5506221,67.979221 65.6700365,67.9992739 65.760515,68.0753113 C66.9876562,69.1093262 68.4523375,69.655832 69.9967586,69.655832 C71.5411797,69.655832 73.0058611,69.1093262 74.2330022,68.0752683 C74.3237931,67.9992308 74.4442228,67.979178 74.550946,68.0225542 C77.7849365,69.3391598 79.9648937,72.7626961 79.9932048,76.5577702 Z M70,67 C67.2430042,67 65,64.7570027 65,62.0000154 C65,59.2430281 67.2430042,57 70,57 C72.7569958,57 75,59.2430281 75,62.0000154 C75,64.7570027 72.7569958,67 70,67 Z" id="Combined-Shape" stroke-width="0.8" fill-rule="nonzero"></path>
        </g>
    </g>
</svg>