<?xml version="1.0" encoding="UTF-8"?>
<svg width="100px" height="100px" viewBox="0 0 100 100" version="1.1" xmlns="http://www.w3.org/2000/svg" xmlns:xlink="http://www.w3.org/1999/xlink">
    <!-- Generator: sketchtool 53.2 (72643) - https://sketchapp.com -->
    <title>23A996AC-9C6D-4C22-9FA1-F120C66E1253</title>
    <desc>Created with sketchtool.</desc>
    <g id="Symbols" stroke="none" stroke-width="1" fill="none" fill-rule="evenodd" stroke-linecap="round" stroke-linejoin="round">
        <g id="Icons-/-check_with_pen_outline-coral-40" stroke="#FF776F" stroke-width="1.5">
            <path d="M36.3041163,48.4786578 L21.0868904,48.4786578 C17.7238834,48.4786578 15,51.2025413 15,54.5655482 L15,78.9131096 C15,82.2761166 17.7238834,85 21.0868904,85 L78.9123488,85 C82.2753557,85 84.9992391,82.2761166 84.9992391,78.9131096 L84.9992391,54.5655482 C84.9992391,51.2025413 82.2753557,48.4786578 78.9123488,48.4786578 L66.7385681,48.4786578 M77.6554059,16.2577037 L30.2172259,63.6958837 L24.1303355,75.8696645 L36.3041163,69.7827741 L83.7422963,22.3445941 C85.4192346,20.6676558 85.4192346,17.9529027 83.7422963,16.2759644 L83.7240356,16.2577037 C82.0470973,14.5807654 79.3323442,14.5807654 77.6554059,16.2577037 L77.6554059,16.2577037 Z M81.955794,30.2179868 L69.7820132,18.044206 L54.5647873,33.2614319 M30.2172259,63.6958837 L36.3041163,69.7827741 M57.6082325,57.6089934 L75.8689036,57.6089934 M75.8689036,66.7393289 L48.477897,66.7393289 M75.8689036,75.8696645 L39.3475614,75.8696645" id="check"></path>
        </g>
    </g>
</svg>