<?xml version="1.0" encoding="UTF-8"?>
<svg width="24px" height="24px" viewBox="0 0 24 24" version="1.1" xmlns="http://www.w3.org/2000/svg" xmlns:xlink="http://www.w3.org/1999/xlink">
    <!-- Generator: sketchtool 53.2 (72643) - https://sketchapp.com -->
    <title>8EEF6608-8C55-4054-A1CF-D77DC67CAD14</title>
    <desc>Created with sketchtool.</desc>
    <g id="Symbols" stroke="none" stroke-width="1" fill="none" fill-rule="evenodd">
        <g id="Icons-/-avatar_fill-white-24" fill="#FFFFFF" fill-rule="nonzero">
            <path d="M21.8312777,21.6019437 C21.8357708,21.6237507 21.8380561,21.6463324 21.8380174,21.6694176 C21.8380174,21.8519302 21.6902101,21.9999311 21.5010353,21.9999311 L2.33051355,21.9999311 C2.14784603,21.9999311 2,21.8519689 2,21.6694176 C2,19.466136 2.85957537,17.3912948 4.42022836,15.8269622 C5.2643103,14.9862888 6.29396478,14.3268498 7.39883985,13.9193339 C7.50566704,13.8802904 7.62411429,13.8983403 7.71385997,13.9667825 C8.93106239,14.8975114 10.3838811,15.3894278 11.9157938,15.3894278 C13.4477065,15.3894278 14.9005252,14.8975114 16.1177276,13.9667438 C16.2077832,13.8983015 16.3272375,13.8802517 16.4330963,13.9192951 C19.6408944,15.1043874 21.8031959,18.1859528 21.8312777,21.6019437 Z M11.79,13.5800295 C9.14879801,13.5800295 7,11.4312315 7,8.79002951 C7,6.14882755 9.14879801,4 11.79,4 C14.4312019,4 16.5799999,6.14882755 16.5799999,8.79002951 C16.5799999,11.4312315 14.4312019,13.5800295 11.79,13.5800295 Z" id="Combined-Shape"></path>
        </g>
    </g>
</svg>