<?xml version="1.0" encoding="UTF-8"?>
<svg width="24px" height="24px" viewBox="0 0 24 24" version="1.1" xmlns="http://www.w3.org/2000/svg" xmlns:xlink="http://www.w3.org/1999/xlink">
    <!-- Generator: sketchtool 53.2 (72643) - https://sketchapp.com -->
    <title>A8E8D15A-9CD8-4608-9DEE-FF4808ECFA0E</title>
    <desc>Created with sketchtool.</desc>
    <g id="Symbols" stroke="none" stroke-width="1" fill="none" fill-rule="evenodd">
        <g id="Icons-/-avatar_outline-grey-24-" fill-rule="nonzero" stroke="#565350" stroke-width="0.8">
            <path d="M21.9932048,21.6019437 C21.9977346,21.6237507 22.0000386,21.6463324 21.9999995,21.6694176 C21.9999995,21.8519302 21.8509853,21.9999311 21.6667872,21.9999311 C21.6651471,22.0000861 21.6628823,21.9999311 21.6602659,21.9999311 L2.33321227,21.9999311 C2.14905323,21.9999311 2,21.8519689 2,21.6694176 C2,19.466136 2.86659401,17.3912948 4.4399901,15.8269622 C5.29096418,14.9862888 6.32902603,14.3268498 7.44292267,13.9193339 C7.55062212,13.8802904 7.67003653,13.8983403 7.760515,13.9667825 C8.98765618,14.8975114 10.4523375,15.3894278 11.9967586,15.3894278 C13.5411797,15.3894278 15.0058611,14.8975114 16.2330022,13.9667438 C16.3237931,13.8983015 16.4442228,13.8802517 16.550946,13.9192951 C19.7849365,15.1043874 21.9648937,18.1859528 21.9932048,21.6019437 Z M12.3316695,12.5801888 C9.39090734,12.5801888 6.99839667,10.2070553 6.99839667,7.29011071 C6.99839667,4.3731661 9.39090734,2 12.3316695,2 C15.2724317,2 17.6649423,4.3731661 17.6649423,7.29011071 C17.6649423,10.2070553 15.2724317,12.5801888 12.3316695,12.5801888 Z" id="Combined-Shape"></path>
        </g>
    </g>
</svg>