<?xml version="1.0" encoding="UTF-8"?>
<svg width="24px" height="24px" viewBox="0 0 24 24" version="1.1" xmlns="http://www.w3.org/2000/svg" xmlns:xlink="http://www.w3.org/1999/xlink">
    <!-- Generator: sketchtool 53.2 (72643) - https://sketchapp.com -->
    <title>6811291B-07D1-4941-A4C0-B6890531EE33</title>
    <desc>Created with sketchtool.</desc>
    <g id="Symbols" stroke="none" stroke-width="1" fill="none" fill-rule="evenodd" stroke-linecap="round" stroke-linejoin="round">
        <g id="Icons-/-cog_outline-black-24" stroke="#565350" stroke-width="0.8">
            <path d="M12.0024823,15.9130435 C9.78459108,15.9130435 7.97970498,14.1573913 7.97970498,12 C7.97970498,9.8426087 9.78459108,8.08695652 12.0024823,8.08695652 C14.2203736,8.08695652 16.0252597,9.8426087 16.0252597,12 C16.0252597,14.1573913 14.2203736,15.9130435 12.0024823,15.9130435 L12.0024823,15.9130435 Z M19.6403956,12.98 C19.6815173,12.66 19.7128056,12.34 19.7128056,12 C19.7128056,11.66 19.6815173,11.34 19.6403956,11.02 L21.8100135,9.37043478 C22.0048947,9.22 22.0567439,8.95043478 21.9333787,8.73043478 L19.8772925,5.27043478 C19.7539273,5.05043478 19.4759087,4.97043478 19.2497392,5.05043478 L16.6903589,6.05043478 C16.1557765,5.65043478 15.5800723,5.32 14.9525191,5.07043478 L14.5618627,2.42 C14.5314684,2.18 14.3151323,2 14.0585685,2 L9.94639613,2 C9.68893838,2 9.4734963,2.18 9.44220803,2.42 L9.05155165,5.07043478 C8.42489234,5.32 7.8491882,5.66 7.31460579,6.05043478 L4.75433149,5.05043478 C4.51832855,4.96 4.25103734,5.05043478 4.12767217,5.27043478 L2.07158597,8.73043478 C1.93749339,8.95043478 1.99917598,9.22 2.19495114,9.37043478 L4.36367511,11.02 C4.32255339,11.34 4.29215907,11.6704348 4.29215907,12 C4.29215907,12.3304348 4.32255339,12.66 4.36367511,12.98 L2.19495114,14.6304348 C1.99917598,14.78 1.9482208,15.0504348 2.07158597,15.2704348 L4.12767217,18.7304348 C4.25103734,18.9504348 4.52816201,19.0304348 4.75433149,18.9504348 L7.31460579,17.9504348 C7.8491882,18.3504348 8.42489234,18.68 9.05155165,18.9304348 L9.44220803,21.58 C9.4734963,21.82 9.68893838,22 9.94639613,22 L14.0585685,22 C14.3151323,22 14.5314684,21.82 14.5618627,21.58 L14.9525191,18.9304348 C15.5800723,18.68 16.1557765,18.34 16.6903589,17.9504348 L19.2497392,18.9504348 C19.4866361,19.04 19.7539273,18.9504348 19.8772925,18.7304348 L21.9333787,15.2704348 C22.0567439,15.0504348 22.0048947,14.78 21.8100135,14.6304348 L19.6403956,12.98 L19.6403956,12.98 Z" id="setting"></path>
        </g>
    </g>
</svg>