<?xml version="1.0" encoding="UTF-8"?>
<svg width="24px" height="24px" viewBox="0 0 24 24" version="1.1" xmlns="http://www.w3.org/2000/svg" xmlns:xlink="http://www.w3.org/1999/xlink">
    <!-- Generator: sketchtool 53.2 (72643) - https://sketchapp.com -->
    <title>5F8F7289-C66A-45BC-9990-7C2DBA94C57B</title>
    <desc>Created with sketchtool.</desc>
    <g id="Symbols" stroke="none" stroke-width="1" fill="none" fill-rule="evenodd">
        <g id="Icons-/-form_fill-white-24" fill="#FFFFFF">
            <g id="Group-51" transform="translate(2.000000, 2.000000)">
                <path d="M5.83333333,12.5 C5.60333333,12.5 5.41666667,12.3133333 5.41666667,12.0833333 C5.41666667,11.8533333 5.60333333,11.6666667 5.83333333,11.6666667 L6.66666667,11.6666667 C6.89666667,11.6666667 7.08333333,11.8533333 7.08333333,12.0833333 C7.08333333,12.3133333 6.89666667,12.5 6.66666667,12.5 L5.83333333,12.5 Z M5.89833333,15.8333333 L5.87416667,15.8333333 C5.64333333,15.8333333 5.4575,15.6466667 5.4575,15.4166667 C5.4575,15.1866667 5.64333333,15 5.87416667,15 C6.10416667,15 6.3025,15.1866667 6.3025,15.4166667 C6.3025,15.6466667 6.12833333,15.8333333 5.89833333,15.8333333 L5.89833333,15.8333333 Z M5.83333333,8.33333333 L8.64166667,8.33333333 C8.87166667,8.33333333 9.05833333,8.52 9.05833333,8.75 C9.05833333,8.98 8.87166667,9.16666667 8.64166667,9.16666667 L5.83333333,9.16666667 C5.60333333,9.16666667 5.41666667,8.98 5.41666667,8.75 C5.41666667,8.52 5.60333333,8.33333333 5.83333333,8.33333333 L5.83333333,8.33333333 Z M5.83333333,5 L11.25,5 C11.48,5 11.6666667,5.18666667 11.6666667,5.41666667 C11.6666667,5.64666667 11.48,5.83333333 11.25,5.83333333 L5.83333333,5.83333333 C5.60333333,5.83333333 5.41666667,5.64666667 5.41666667,5.41666667 C5.41666667,5.18666667 5.60333333,5 5.83333333,5 L5.83333333,5 Z M16.4091667,11.555 C16.255,11.4908333 16.075,11.5258333 15.955,11.6458333 L12.1341667,15.4675 C11.9733333,15.6275 11.7733333,15.7416667 11.5533333,15.7966667 L8.22083333,16.6291667 C7.79166667,16.7358333 7.34083333,16.6083333 7.0325,16.3008333 C6.72416667,15.9916667 6.59833333,15.5375 6.70416667,15.1133333 L7.5375,11.78 C7.59166667,11.5608333 7.70583333,11.36 7.86583333,11.1991667 L15.6825,3.38333333 C15.8841667,3.18166667 16.1308333,3.00583333 16.4408333,2.8475 C16.58,2.77583333 16.6666667,2.63333333 16.6666667,2.47666667 L16.6666667,1.25 C16.6666667,0.560833333 16.1058333,0 15.4166667,0 L1.25,0 C0.560833333,0 0,0.560833333 0,1.25 L0,4.16666667 L0.416666667,4.16666667 L1.74333333,4.16666667 L2.91666667,4.16666667 C3.14666667,4.16666667 3.33333333,3.98 3.33333333,3.75 C3.33333333,3.52 3.14666667,3.33333333 2.91666667,3.33333333 L1.74333333,3.33333333 C1.91583333,2.84916667 2.37416667,2.5 2.91666667,2.5 C3.60583333,2.5 4.16666667,3.06083333 4.16666667,3.75 C4.16666667,4.43916667 3.60583333,5 2.91666667,5 L0,5 L0,8.33333333 L0.416666667,8.33333333 L1.74333333,8.33333333 L2.91666667,8.33333333 C3.14666667,8.33333333 3.33333333,8.14666667 3.33333333,7.91666667 C3.33333333,7.68666667 3.14666667,7.5 2.91666667,7.5 L1.74333333,7.5 C1.91583333,7.01583333 2.37416667,6.66666667 2.91666667,6.66666667 C3.60583333,6.66666667 4.16666667,7.2275 4.16666667,7.91666667 C4.16666667,8.60583333 3.60583333,9.16666667 2.91666667,9.16666667 L0,9.16666667 L0,12.5 L0.416666667,12.5 L1.74333333,12.5 L2.91666667,12.5 C3.14666667,12.5 3.33333333,12.3133333 3.33333333,12.0833333 C3.33333333,11.8533333 3.14666667,11.6666667 2.91666667,11.6666667 L1.74333333,11.6666667 C1.91583333,11.1825 2.37416667,10.8333333 2.91666667,10.8333333 C3.60583333,10.8333333 4.16666667,11.3941667 4.16666667,12.0833333 C4.16666667,12.7725 3.60583333,13.3333333 2.91666667,13.3333333 L0,13.3333333 L0,16.6666667 L0.416666667,16.6666667 L1.74333333,16.6666667 L2.91666667,16.6666667 C3.14666667,16.6666667 3.33333333,16.48 3.33333333,16.25 C3.33333333,16.02 3.14666667,15.8333333 2.91666667,15.8333333 L1.74333333,15.8333333 C1.91583333,15.3491667 2.37416667,15 2.91666667,15 C3.60583333,15 4.16666667,15.5608333 4.16666667,16.25 C4.16666667,16.9391667 3.60583333,17.5 2.91666667,17.5 L0,17.5 L0,18.75 C0,19.4391667 0.560833333,20 1.25,20 L15.4166667,20 C16.1058333,20 16.6666667,19.4391667 16.6666667,18.75 L16.6666667,11.94 C16.6666667,11.7716667 16.565,11.6191667 16.4091667,11.555 L16.4091667,11.555 Z" id="Fill-43"></path>
                <path d="M7.622,15.71125 C7.70116667,15.7904167 7.80783333,15.8329167 7.917,15.8329167 C7.95033333,15.8329167 7.9845,15.8295833 8.01783333,15.8204167 L11.0453333,15.06375 C11.0128333,15.0129167 10.9878333,14.95625 10.9803333,14.8929167 C10.9753333,14.8554167 10.8353333,13.89625 9.8195,13.0504167 C9.22616667,12.5554167 8.6545,12.3654167 8.26866667,12.2904167 L7.51283333,15.3154167 C7.477,15.4579167 7.51866667,15.6079167 7.622,15.71125" id="Fill-45"></path>
                <path d="M8.70308333,11.541 C9.17225,11.6685 9.75891667,11.9143333 10.3530833,12.4101667 C11.4039167,13.2851667 11.7014167,14.2801667 11.7789167,14.6435 L17.9164167,8.506 L14.82725,5.41683333 L8.70308333,11.541 Z" id="Fill-47"></path>
                <path d="M17.8149167,3.33333333 C17.2315833,3.33333333 16.6840833,3.56 16.27075,3.97333333 L15.4165833,4.8275 L18.50575,7.91666667 L19.3599167,7.0625 C19.77325,6.64916667 19.9999167,6.10083333 19.9999167,5.51666667 C19.9999167,4.3125 19.0199167,3.33333333 17.8149167,3.33333333" id="Fill-49"></path>
            </g>
        </g>
    </g>
</svg>