<?xml version="1.0" encoding="UTF-8"?>
<svg width="24px" height="24px" viewBox="0 0 24 24" version="1.1" xmlns="http://www.w3.org/2000/svg" xmlns:xlink="http://www.w3.org/1999/xlink">
    <!-- Generator: sketchtool 53.2 (72643) - https://sketchapp.com -->
    <title>E2EA8143-C6B8-4406-A117-04CEF95D3388</title>
    <desc>Created with sketchtool.</desc>
    <g id="Symbols" stroke="none" stroke-width="1" fill="none" fill-rule="evenodd">
        <g id="Icons-/-id_tag_fill-white-24">
            <g id="Group-360" transform="translate(2.000000, 4.000000)" fill="#FFFFFF">
                <path d="M10.41675,2.5 C10.18675,2.5 10.0000833,2.31333333 10.0000833,2.08333333 C10.0000833,1.85333333 10.18675,1.66666667 10.41675,1.66666667 C10.64675,1.66666667 10.8334167,1.85333333 10.8334167,2.08333333 C10.8334167,2.31333333 10.64675,2.5 10.41675,2.5 M10.41675,0 C9.26841667,0 8.33341667,0.935 8.33341667,2.08333333 L8.33341667,4.58333333 C8.33341667,4.81333333 8.52008333,5 8.75008333,5 L12.0834167,5 C12.3134167,5 12.5000833,4.81333333 12.5000833,4.58333333 L12.5000833,2.08333333 C12.5000833,0.935 11.5650833,0 10.41675,0" id="Fill-356"></path>
                <path d="M17.91675,8.33333333 L12.0834167,8.33333333 C11.8534167,8.33333333 11.66675,8.14666667 11.66675,7.91666667 C11.66675,7.68666667 11.8534167,7.5 12.0834167,7.5 L17.91675,7.5 C18.14675,7.5 18.3334167,7.68666667 18.3334167,7.91666667 C18.3334167,8.14666667 18.14675,8.33333333 17.91675,8.33333333 M17.91675,10.8333333 L12.0834167,10.8333333 C11.8534167,10.8333333 11.66675,10.6466667 11.66675,10.4166667 C11.66675,10.1866667 11.8534167,10 12.0834167,10 L17.91675,10 C18.14675,10 18.3334167,10.1866667 18.3334167,10.4166667 C18.3334167,10.6466667 18.14675,10.8333333 17.91675,10.8333333 M17.91675,13.3333333 L12.0834167,13.3333333 C11.8534167,13.3333333 11.66675,13.1466667 11.66675,12.9166667 C11.66675,12.6866667 11.8534167,12.5 12.0834167,12.5 L17.91675,12.5 C18.14675,12.5 18.3334167,12.6866667 18.3334167,12.9166667 C18.3334167,13.1466667 18.14675,13.3333333 17.91675,13.3333333 M17.91675,3.33333333 L13.7500833,3.33333333 C13.5200833,3.33333333 13.3334167,3.52 13.3334167,3.75 L13.3334167,4.58333333 C13.3334167,5.2725 12.7725833,5.83333333 12.0834167,5.83333333 L8.75008333,5.83333333 C8.06091667,5.83333333 7.50008333,5.2725 7.50008333,4.58333333 L7.50008333,3.75 C7.50008333,3.52 7.31341667,3.33333333 7.08341667,3.33333333 L2.08341667,3.33333333 C0.935083333,3.33333333 8.33333333e-05,4.26833333 8.33333333e-05,5.41666667 L8.33333333e-05,14.5833333 C8.33333333e-05,15.7316667 0.935083333,16.6666667 2.08341667,16.6666667 L17.91675,16.6666667 C19.0650833,16.6666667 20.0000833,15.7316667 20.0000833,14.5833333 L20.0000833,5.41666667 C20.0000833,4.26833333 19.0650833,3.33333333 17.91675,3.33333333" id="Fill-358"></path>
            </g>
            <path d="M11.9969422,17.9855505 C11.9989806,17.9954438 12.0000174,18.0056885 11.9999998,18.0161617 C11.9999998,18.098963 11.9329434,18.1661072 11.8471197,18.1661072 L3.14994552,18.1661072 C3.06707395,18.1661072 3,18.0989805 3,18.0161617 C3,17.0165893 3.38996731,16.0752871 4.09799554,15.3655895 C4.48093388,14.9841975 4.94806171,14.6850269 5.4493152,14.5001474 C5.49777996,14.4824344 5.55151644,14.4906232 5.59223175,14.5216736 C6.14444528,14.9439215 6.80355188,15.1670913 7.49854138,15.1670913 C8.19353088,15.1670913 8.85263748,14.9439215 9.40485101,14.5216561 C9.4457069,14.4906056 9.49990026,14.4824168 9.54792571,14.5001298 C11.0032214,15.0377758 11.9842022,16.435803 11.9969422,17.9855505 Z M7.44147194,14.3462137 C6.24322634,14.3462137 5.26837179,13.3713592 5.26837179,12.1731136 C5.26837179,10.974868 6.24322634,10 7.44147194,10 C8.63971754,10 9.6145721,10.974868 9.6145721,12.1731136 C9.6145721,13.3713592 8.63971754,14.3462137 7.44147194,14.3462137 Z" id="Combined-Shape" fill="#FF776F" fill-rule="nonzero"></path>
        </g>
    </g>
</svg>