<?xml version="1.0" encoding="UTF-8"?>
<svg width="69px" height="48px" viewBox="0 0 69 48" version="1.1" xmlns="http://www.w3.org/2000/svg" xmlns:xlink="http://www.w3.org/1999/xlink">
    <!-- Generator: sketchtool 53.2 (72643) - https://sketchapp.com -->
    <title>972F1C69-410B-4072-BEAC-7DFA0263970D</title>
    <desc>Created with sketchtool.</desc>
    <g id="Web" stroke="none" stroke-width="1" fill="none" fill-rule="evenodd">
        <g id="logo-color" transform="translate(-1306.000000, -36.000000)" fill="#FF776F">
            <g id="Group" transform="translate(1306.000000, 36.000000)">
                <path d="M33.648461,37.6839499 C32.7475369,39.9769615 31.4880162,41.8793604 29.8714276,43.3914596 C28.2533104,44.9048097 26.2781252,46.0500645 23.9455663,46.8300387 C21.6117846,47.6100129 19.0355758,48 16.2178569,48 C13.1684107,48 10.5799734,47.6334684 8.45560233,46.9010307 C6.32970268,46.1685931 4.52785445,45.2591444 3.04944623,44.1714338 C1.01587066,42.7065584 3.33955086e-13,40.8157308 3.33955086e-13,38.4992638 L3.33955086e-13,0.708982161 C0.461314723,0.566998084 1.20082454,0.414380839 2.21791804,0.248003023 C3.23348299,0.0828761679 4.27319894,-1.38555833e-13 5.33676018,-1.38555833e-13 C6.35232513,-1.38555833e-13 7.2654776,0.0706792979 8.07438334,0.212663374 C8.88206624,0.35433471 9.5644085,0.637990123 10.1189644,1.06331687 C10.6732147,1.48895636 11.0889788,2.06815131 11.3662567,2.80058899 C11.6435347,3.53396489 11.7823265,4.49095008 11.7823265,5.67217003 L11.7823265,12.6203203 C12.9366833,12.1483953 14.0347897,11.8172033 15.0741999,11.6276827 C16.1139159,11.4394131 17.2572671,11.3440273 18.5048651,11.3440273 C20.7227832,11.3440273 22.8248375,11.7462113 24.8119454,12.5493283 C26.798136,13.3536962 28.5544337,14.5236575 30.0793096,16.0588994 C31.6041856,17.5953923 32.8050101,19.4977913 33.6833118,21.7667218 C34.5603906,24.0353396 35,26.6586049 35,29.6365176 C35,32.7098161 34.5496908,35.3918766 33.648461,37.6839499 Z M23.4334428,36.4315309 C25.6724548,34.8152893 27.0995039,32.3705987 27.0995039,29.6344342 C27.0995039,24.7678831 22.5844892,20.8226647 17.0150846,20.8226647 C11.4456799,20.8226647 6.93066522,24.7678831 6.93066522,29.6344342 C6.93066522,34.3827695 11.231378,38.2429225 16.6127716,38.4286902 L16.5947348,38.4465164 L28.7802914,38.4465164 L23.4334428,36.4315309 Z" id="Path-2"></path>
                <path d="M68.0000856,43.2997807 C67.3329689,44.065797 66.5399124,44.7270773 65.6206116,45.2842359 C62.6315154,47.0948477 58.4243914,48 52.9998479,48 C50.5625755,48 48.3674484,47.7671851 46.4138583,47.3037053 C44.4590515,46.8402256 42.7810691,46.1439309 41.3793028,45.2148214 C39.9763197,44.2866333 38.8964,43.1029017 38.1377183,41.6633194 C37.3793408,40.2249657 37,38.5537971 37,36.6498136 C37,33.4469196 37.9418117,30.986699 39.8275646,29.2688445 C41.7121006,27.5519115 44.6315344,26.4836659 48.5861702,26.0659506 L57.6206877,25.0910766 L57.6206877,24.6033325 C57.6206877,23.2577362 57.034489,22.2948408 55.8620916,21.7137251 C54.6896942,21.1338378 52.9998479,20.84328 50.7931611,20.84328 C49.0452121,20.84328 47.3447188,21.029409 45.6895516,21.4004385 C44.0343844,21.7723895 42.5398363,22.2361764 41.2068198,22.7930278 C40.6087572,22.3753125 40.1034765,21.7376823 39.6897607,20.8782943 C39.2757408,20.0198278 39.0688829,19.126347 39.0688829,18.1972374 C39.0688829,16.9907772 39.3554419,16.0278818 39.9309935,15.30763 C40.5053283,14.5882995 41.3899499,13.9737051 42.5860751,13.4623109 C43.9190916,12.9521453 45.4933408,12.5811158 47.3103438,12.3483009 C49.1261301,12.1164074 50.8384874,12 52.4483283,12 C54.930927,12 57.195108,12.2558507 59.2414799,12.7660163 C61.286635,13.2774104 63.0345841,14.0541767 64.4825891,15.0987723 C65.9308984,16.1430607 67.0451931,17.4662355 67.8276026,19.0676825 C68.6087953,20.6691295 69,22.5614415 69,24.7427757 L69,40.3404517 C69,41.5481405 68.6659854,42.5337645 68.0000856,43.2997807 Z M57.873683,38.0206995 L57.873683,32.4500352 L52.9081815,32.8677505 C51.6204912,32.9614293 50.5630825,33.2400086 49.735651,33.7034884 C48.9079153,34.1678896 48.4941996,34.8641842 48.4941996,35.7923724 C48.4941996,36.7214819 48.8498126,37.4755196 49.563168,38.0554068 C50.2756109,38.6365225 51.4823832,38.9258519 53.1837892,38.9258519 C53.965286,38.9258519 54.8270924,38.8453802 55.770121,38.6822869 C56.7119327,38.5201151 57.4134242,38.2989717 57.873683,38.0206995 Z" id="Path-3"></path>
            </g>
        </g>
    </g>
</svg>