<svg xmlns="http://www.w3.org/2000/svg" width="24" height="24" viewBox="0 0 24 24">
    <path fill="#FFF" fill-rule="nonzero" d="M21.831 21.602a.331.331 0 0 1-.33.398H2.331A.33.33 0 0 1 2 21.67c0-2.204.86-4.279 2.42-5.843A8.346 8.346 0 0 1 7.4 13.919a.331.331 0 0 1 .315.048 6.861 6.861 0 0 0 4.202 1.422 6.86 6.86 0 0 0 4.202-1.422.332.332 0 0 1 .315-.048 8.294 8.294 0 0 1 5.398 7.683zM11.79 13.58A4.795 4.795 0 0 1 7 8.79 4.795 4.795 0 0 1 11.79 4a4.795 4.795 0 0 1 4.79 4.79 4.795 4.795 0 0 1-4.79 4.79z"/>
</svg>
