<svg xmlns="http://www.w3.org/2000/svg" width="24" height="24" viewBox="0 0 24 24">
    <g fill="none" fill-rule="evenodd">
        <g fill="#FFF">
            <path d="M12.417 6.5a.417.417 0 1 1 0-.834.417.417 0 0 1 0 .834m0-2.5a2.086 2.086 0 0 0-2.084 2.083v2.5c0 .23.187.417.417.417h3.333c.23 0 .417-.187.417-.417v-2.5A2.086 2.086 0 0 0 12.417 4"/>
            <path d="M19.917 12.333h-5.834a.417.417 0 0 1 0-.833h5.834a.417.417 0 0 1 0 .833m0 2.5h-5.834a.417.417 0 0 1 0-.833h5.834a.417.417 0 0 1 0 .833m0 2.5h-5.834a.417.417 0 0 1 0-.833h5.834a.417.417 0 0 1 0 .833m0-10H15.75a.417.417 0 0 0-.417.417v.833c0 .69-.56 1.25-1.25 1.25H10.75c-.69 0-1.25-.56-1.25-1.25V7.75a.417.417 0 0 0-.417-.417h-5A2.086 2.086 0 0 0 2 9.417v9.166c0 1.149.935 2.084 2.083 2.084h15.834A2.086 2.086 0 0 0 22 18.583V9.417a2.086 2.086 0 0 0-2.083-2.084"/>
        </g>
        <path fill="#FF776F" fill-rule="nonzero" d="M11.997 17.986a.15.15 0 0 1-.15.18H3.15a.15.15 0 0 1-.15-.15c0-1 .39-1.94 1.098-2.65.383-.382.85-.681 1.351-.866a.15.15 0 0 1 .143.022 3.113 3.113 0 0 0 1.907.645c.695 0 1.354-.223 1.906-.645a.15.15 0 0 1 .143-.022 3.763 3.763 0 0 1 2.449 3.486zm-4.556-3.64a2.176 2.176 0 0 1-2.173-2.173c0-1.198.975-2.173 2.173-2.173 1.199 0 2.174.975 2.174 2.173a2.176 2.176 0 0 1-2.174 2.173z"/>
    </g>
</svg>
