<svg xmlns="http://www.w3.org/2000/svg" width="24" height="24" viewBox="0 0 24 24">
    <path fill="none" fill-rule="evenodd" stroke="#FF776F" stroke-linecap="round" stroke-linejoin="round" stroke-width=".8" d="M14.174 3H2.87c-.48 0-.87.382-.87.854v16.221c0 .471.39.854.87.854h13.043c.48 0 .87-.383.87-.854v-6.83m-6.957 4.269l.87-3.415L18.85 6.09a1.86 1.86 0 0 1 1.304-.53h.002c1.018 0 1.843.81 1.843 1.81v.002c0 .48-.194.94-.54 1.28l-8.156 8.007-3.478.854zM13.304 3h2.609c.48 0 .87.382.87.854v4.269m-12.696 2.56h7.565M4.087 7.27h9.6m-9.6 6.83h4.518m-3.127 3.415c0 .471-.39.854-.87.854a.862.862 0 0 1-.869-.854c0-.471.39-.854.87-.854s.87.383.87.854zM17.652 7.269l2.609 2.561m-9.565 4.269s.896.026 1.739.854c.842.827.87 1.707.87 1.707"/>
</svg>
