<svg xmlns="http://www.w3.org/2000/svg" width="24" height="24" viewBox="0 0 24 24">
    <path fill="none" fill-rule="evenodd" stroke="#FF776F" stroke-linecap="round" stroke-linejoin="round" stroke-width=".8" d="M10.696 7.515H3.739C2.78 7.515 2 8.3 2 9.272v8.787c0 .971.778 1.758 1.74 1.758h16.52c.962 0 1.74-.787 1.74-1.758V9.272c0-.97-.778-1.757-1.74-1.757h-6.086m-3.478-1.758v2.637h3.478V5.757c0-.97-.778-1.757-1.74-1.757-.96 0-1.738.786-1.738 1.757zm-.536 5.602c0 .96-.765 1.739-1.708 1.739s-1.707-.78-1.707-1.74.764-1.739 1.707-1.739c.943 0 1.708.78 1.708 1.74zm4.014-.33h6.087m-6.087 2.637h6.087m-6.087 2.636h6.087m-8.052 1.339c0-2.113-1.682-3.826-3.757-3.826-2.074 0-3.756 1.713-3.756 3.826M12.73 5.709a.262.262 0 0 1-.26.264.262.262 0 0 1-.261-.264c0-.145.117-.264.26-.264.145 0 .261.119.261.264"/>
</svg>
