<?xml version="1.0" encoding="utf-8"?>
<!DOCTYPE svg PUBLIC "-//W3C//DTD SVG 1.1//EN" "http://www.w3.org/Graphics/SVG/1.1/DTD/svg11.dtd">
<svg version="1.1" id="summary-icon-white" xmlns="http://www.w3.org/2000/svg" xmlns:xlink="http://www.w3.org/1999/xlink" x="0px" y="0px"
	 width="24px" height="24px" viewBox="0 0 24 24" enable-background="new 0 0 24 24" xml:space="preserve">
<path fill="#ffffff" d="M2.863,7.965C2.775,7.878,2.654,7.828,2.531,7.828s-0.244,0.05-0.332,0.137
	C2.113,8.053,2.063,8.173,2.063,8.297s0.051,0.244,0.137,0.332c0.088,0.087,0.209,0.137,0.332,0.137s0.244-0.05,0.332-0.137
	C2.949,8.541,3,8.42,3,8.297S2.949,8.053,2.863,7.965z"/>
<path fill="#ffffff" d="M20.531,0h-9.484c-0.259,0-0.469,0.21-0.469,0.469s0.21,0.469,0.469,0.469h9.484
	c0.258,0,0.469,0.21,0.469,0.469v21.188c0,0.258-0.211,0.469-0.469,0.469H3.469C3.211,23.063,3,22.852,3,22.594V10.047
	c0-0.259-0.21-0.469-0.469-0.469s-0.469,0.21-0.469,0.469v12.547C2.063,23.369,2.693,24,3.469,24h17.063
	c0.775,0,1.406-0.631,1.406-1.406V1.406C21.938,0.631,21.307,0,20.531,0z"/>
<path fill="#ffffff" d="M12,1.875c-0.318,0-0.64,0.024-0.953,0.072c-0.256,0.04-0.432,0.279-0.393,0.535
	c0.04,0.256,0.279,0.431,0.535,0.392C11.455,2.833,11.729,2.813,12,2.813c2.921,0,5.297,2.376,5.297,5.297
	c0,1.297-0.469,2.486-1.246,3.408c-0.344-0.591-0.813-1.101-1.383-1.496c-0.332-0.231-0.689-0.415-1.064-0.552
	c0.428-0.417,0.693-0.999,0.693-1.642V7.371c0-1.267-1.03-2.297-2.297-2.297s-2.297,1.03-2.297,2.297v0.457
	c0,0.643,0.266,1.225,0.693,1.642c-0.375,0.137-0.732,0.321-1.064,0.552c-0.572,0.397-1.044,0.91-1.389,1.504
	c-0.592-0.703-1.006-1.568-1.167-2.533c-0.043-0.255-0.284-0.428-0.54-0.385C5.98,8.65,5.809,8.892,5.852,9.147
	c0.241,1.437,0.987,2.753,2.102,3.704c1.126,0.963,2.563,1.492,4.047,1.492c3.438,0,6.234-2.796,6.234-6.234
	C18.234,4.672,15.438,1.875,12,1.875z M10.641,7.371c0-0.75,0.609-1.359,1.359-1.359s1.359,0.61,1.359,1.359v0.457
	c0,0.75-0.609,1.359-1.359,1.359s-1.359-0.61-1.359-1.359V7.371z M12,13.406c-1.27,0-2.442-0.443-3.361-1.194
	c0.63-1.277,1.917-2.087,3.361-2.087c1.441,0,2.726,0.806,3.356,2.079C14.442,12.955,13.273,13.406,12,13.406z"/>
<path fill="#ffffff" d="M16.329,18.656H9.673c-0.259,0-0.469,0.21-0.469,0.469s0.21,0.469,0.469,0.469h6.656
	c0.259,0,0.469-0.21,0.469-0.469S16.588,18.656,16.329,18.656z"/>
<path fill="#ffffff" d="M8.002,16.168c-0.087-0.086-0.208-0.137-0.332-0.137c-0.123,0-0.244,0.051-0.33,0.137
	c-0.088,0.088-0.139,0.209-0.139,0.332s0.051,0.244,0.139,0.332c0.086,0.086,0.207,0.137,0.33,0.137
	c0.124,0,0.245-0.051,0.332-0.137c0.088-0.088,0.137-0.209,0.137-0.332S8.09,16.256,8.002,16.168z"/>
<path fill="#ffffff" d="M8.002,18.793c-0.087-0.086-0.207-0.137-0.332-0.137c-0.123,0-0.244,0.051-0.33,0.137
	c-0.088,0.088-0.139,0.209-0.139,0.332s0.051,0.244,0.139,0.332c0.086,0.086,0.207,0.137,0.33,0.137
	c0.124,0,0.245-0.051,0.332-0.137c0.088-0.088,0.137-0.209,0.137-0.332S8.09,18.881,8.002,18.793z"/>
<path fill="#ffffff" d="M16.329,16.031H9.673c-0.259,0-0.469,0.21-0.469,0.469s0.21,0.469,0.469,0.469h6.656
	c0.259,0,0.469-0.21,0.469-0.469S16.588,16.031,16.329,16.031z"/>
<path fill="#ffffff" d="M7.576,2.701c-0.184-0.183-0.48-0.183-0.663,0L5.387,4.228L4.865,3.706c-0.184-0.183-0.48-0.183-0.663,0
	c-0.183,0.183-0.183,0.48,0,0.663l0.853,0.853c0.092,0.092,0.212,0.137,0.332,0.137s0.24-0.045,0.332-0.137l1.857-1.858
	C7.76,3.181,7.76,2.884,7.576,2.701z"/>
<path fill="#ffffff" d="M5.906,0C3.787,0,2.063,1.724,2.063,3.844s1.725,3.844,3.844,3.844S9.75,5.963,9.75,3.844S8.025,0,5.906,0z
	 M5.906,6.75C4.304,6.75,3,5.446,3,3.844s1.304-2.906,2.906-2.906s2.906,1.304,2.906,2.906S7.509,6.75,5.906,6.75z"/>
</svg>