<svg xmlns="http://www.w3.org/2000/svg" width="30" height="30" viewBox="0 0 30 30">
    <path fill="none" fill-rule="evenodd" stroke="#FF776F" stroke-linecap="round" stroke-linejoin="round" stroke-width="2" d="M7.222 13.444c2.24 4.403 4.931 7.078 9.334 9.334l3.748-2.831c.42-.42 1.043-.56 1.587-.374 1.742.576 3.625.887 5.553.887.856 0 1.556.7 1.556 1.556v5.428C29 28.3 28.3 29 27.444 29 12.838 29 1 17.162 1 2.556 1 1.7 1.7 1 2.556 1H8c.856 0 1.556.7 1.556 1.556 0 1.944.31 3.81.886 5.553a1.561 1.561 0 0 1-.389 1.587l-2.83 3.748zM18.112 1C24.124 1 29 5.875 29 11.889M18.111 7.222a4.666 4.666 0 0 1 4.667 4.667"/>
</svg>
